<?xml version="1.0" encoding="UTF-8"?>
<svg id="Layer_2" data-name="Layer 2" xmlns="http://www.w3.org/2000/svg" viewBox="0 0 689.62 150.37">
  <defs>
    <style>
      .cls-1 {
        fill: blue;
      }
    </style>
  </defs>
  <g id="Layer_1-2" data-name="Layer 1">
    <g>
      <path class="cls-1" d="m0,112.24V13.6L27.98,3.6v84.26h50.4l-10,24.38H0Z"/>
      <path class="cls-1" d="m147.91,112.24l-39.1-64.63v54.63l-25.85,10V13.6l29.45-10,35.01,60.7V13.6l26.18-10v98.64l-25.69,10Z"/>
      <path class="cls-1" d="m180.97,112.24V13.6l27.98-10h20.29c22.74,0,36.49,11.78,36.49,34.52s-13.74,34.52-36.49,34.52h-20.29v29.6l-27.98,10Zm46.3-61.68c8.67,0,13.91-4.75,13.91-12.11s-5.24-11.78-13.91-11.78h-18.33v23.89h18.33Z"/>
      <path class="cls-1" d="m359.09,112.24l-1.64-6.38c-5.24,6.05-16.04,10.14-28.96,10.14-29.78,0-49.9-23.23-49.9-58.25,0-32.07,16.85-57.76,54.81-57.76,28.63,0,46.96,15.38,48.6,37.14h-27.65c-1.14-8.34-7.69-14.07-20.94-14.07-15.05,0-26.18,11.29-26.18,35.83,0,21.76,10.96,33.54,26.34,33.54,10.31,0,22.42-7.2,22.42-17.67h-10.29l10-22.25h26.47v49.72l-23.07,10Z"/>
      <path class="cls-1" d="m389.37,112.24V41.74l24.54-10v4.91c7.2-7.04,13.74-7.04,21.27-7.04h1.96v26.67c-2.13-.33-4.09-.49-5.89-.49-10.47,0-15.71,2.95-15.71,14.07v32.38l-26.18,10Z"/>
      <path class="cls-1" d="m436,71.99c0-25.52,16.2-42.38,42.38-42.38s41.89,16.69,41.89,42.38-16.2,42.38-41.89,42.38-42.38-17.34-42.38-42.38Zm57.92,0c0-14.4-4.91-20.29-15.54-20.29s-15.38,5.89-15.38,20.29,4.75,20.45,15.38,20.45,15.54-6.22,15.54-20.45Z"/>
      <path class="cls-1" d="m553.48,31.74v51.05c0,7.85,3.76,10.96,10.8,10.96,6.54,0,10.96-3.11,10.96-10.96v-41.05l26.18-10v70.5l-24.87,10v-8.51c-4.42,7.36-11.29,10.63-21.76,10.63-16.2,0-27.65-10.63-27.65-24.38v-48.25l26.34-10Z"/>
      <path class="cls-1" d="m634.97,31.74l.33,9.16c4.25-8.02,12.44-11.29,19.47-11.29,20.29,0,34.85,16.53,34.85,43.36,0,23.4-11.78,41.4-32.56,41.4-9.33,0-17.34-2.78-21.43-11.29v37.29l-25.69,10V41.74l25.03-10Zm-.33,39.92c0,14.73,5.89,20.45,14.56,20.45s13.91-5.56,13.91-20.45-5.24-20.78-13.91-20.78-14.56,6.05-14.56,20.78Z"/>
    </g>
  </g>
</svg>