<?xml version="1.0" encoding="UTF-8"?>
<svg id="Layer_2" data-name="Layer 2" xmlns="http://www.w3.org/2000/svg" viewBox="0 0 636.32 208.34">
  <defs>
    <style>
      .cls-1 {
        fill: #0c00ff;
      }
    </style>
  </defs>
  <g id="Layer_1-2" data-name="Layer 1">
    <g>
      <g>
        <path class="cls-1" d="m146.13,163.97h14.13v-4.71h-14.13v4.71Z"/>
        <path class="cls-1" d="m104.17,0C46.64,0,0,46.64,0,104.17s46.64,104.17,104.17,104.17,104.17-46.64,104.17-104.17S161.7,0,104.17,0Zm-31.47,136.61c-2.67-.45-5.32-1.1-8-1.32-5.19-.42-10.41-.83-15.61-.82-8.92,0-17.73,1.27-26.44,3.2-4.03.89-6.54-1.25-6.54-5.4,0-20.8,0-41.61,0-62.41,0-4.39,0-8.78,0-13.17,0-3.08,1.87-5.03,4.93-5.14,1.09-.04,2.18,0,3.45,0v1.78c0,19.36,0,38.71,0,58.07,0,5.32,2.21,9.36,7.04,11.66,1.68.8,3.69,1.18,5.57,1.24,7.36.24,14.58,1.22,21.53,3.73,5.04,1.82,9.63,4.41,13.64,7.99.19.17.44.27.66.4-.07.07-.14.14-.2.2Zm7.13-4.68c0,.2-.03.4-.06.76-1.51-1.32-2.84-2.56-4.26-3.71-7.23-5.85-15.57-9.25-24.66-10.72-4.66-.75-9.4-.98-14.12-1.36-2.83-.23-4.82-2.19-4.82-5.05-.01-24.01-.01-48.02,0-72.03,0-2.92,2.03-5.08,4.94-5.03,10.38.19,20.41,1.92,29.5,7.33,5.18,3.08,9.41,7.17,12.6,12.28.53.85.83,1.98.83,2.98.05,24.84.04,49.69.03,74.53Zm7.42.86v-1.79c0-23.75.06-47.5-.07-71.24-.02-3.44,1.15-6.06,3.19-8.59,6.61-8.21,15.39-12.75,25.51-14.78,4.53-.91,9.2-1.19,13.83-1.57,3.33-.27,5.46,1.92,5.46,5.28,0,23.79,0,47.58,0,71.37,0,3.43-1.93,5.37-5.36,5.43-8.56.14-16.93,1.36-24.96,4.47-6.16,2.39-11.71,5.75-16.45,10.39-.3.29-.63.56-1.16,1.02Zm21.17,1.85c-4.44.3-8.83,1.25-13.25,1.91-.25.04-.5.09-.76.13-.07-.12-.15-.24-.22-.36,2.22-1.58,4.35-3.29,6.67-4.7,5.92-3.61,12.45-5.58,19.28-6.47,3.99-.53,8.04-.57,12.04-1.06,5.65-.69,10.04-5.55,10.37-11.22.04-.74.04-1.49.04-2.24,0-19.09,0-38.18,0-57.27v-1.66c4.72-.52,6.83-.17,8.38,3.57v79.04c-1.83,3.72-4.25,4.08-7.3,3.18-.58-.17-1.2-.23-1.8-.35-11.04-2.32-22.21-3.27-33.46-2.5Zm64.86,26.43c-2.98,4.06-6.03,8.07-9.06,12.09-.15.19-.47.36-.71.36-6.87.02-13.74.02-20.6,0-.26,0-.61-.19-.77-.4-3.05-4.04-6.12-8.06-9.1-12.16-1.69-2.32-1.83-4.89-.51-7.43,1.32-2.54,3.49-3.84,6.37-3.86.74,0,1.48,0,2.29,0v-4.75h-4.64v-4.75h33.36v4.71h-4.7v4.8c.72,0,1.46,0,2.19,0,2.92,0,5.12,1.28,6.47,3.84,1.36,2.6,1.17,5.19-.57,7.56Zm10.25-46.8c-.29.38-.57.55-1.05.53-.97-.03-1.95-.01-3-.01,0,1.13-.02,2.19.01,3.24.02.49-.14.82-.51,1.15-5.95,5.28-12.86,8.47-20.72,9.59-.45.06-.63.23-.73.64-.47,1.95-.96,3.89-1.45,5.89h-4.83c.41-1.9.73-3.78,1.23-5.6,3.52-12.82,10.67-23.05,21.89-30.31,4.06-2.62,8.53-4.3,13.11-5.75,1.5-.47,2.96-1.05,4.44-1.58h.32c-.47,2.14-.96,4.28-1.42,6.42-1.25,5.81-3.64,11.08-7.28,15.79Z"/>
      </g>
      <g>
        <path class="cls-1" d="m230.54,70.5l-8.8-4.97h27.06l-8.8,4.97c-.19,8.22-.19,16.45-.19,24.67v6.6c0,6.79,0,24.82.19,32.95h387.71l8.61-13.2-.96,17.98H221.74l8.8-4.97c.19-8.22.19-26.45.19-34.58v-4.78c0-8.32,0-16.64-.19-24.67Z"/>
        <path class="cls-1" d="m300.98,65.53h13.05l-8.13,5.16v59.48h-3.35l-38.25-52.12v66.19l.14,5.26h-13.14l8.13-5.07v-73.07l-.86-1.15-6.79-4.69h14.73l34.52,47.43v-42.27l-.04-5.16Z"/>
        <path class="cls-1" d="m326.08,95.17c0-8.22,0-16.45-.19-24.67l-8.8-4.97h25.72c16.16,0,24.29,7.84,24.29,19.03s-7.36,19.7-26.97,19.7h-4.97c0,6.88,0,13.39.19,20.27l8.89,4.97h-27.16l8.8-4.97c.19-8.03.19-16.35.19-24.67v-4.69Zm9.28-25.25c-.19,8.22-.19,16.73-.19,25.25v4.59h6.31c11.57,0,16.16-6.22,16.16-15.2s-5.07-14.63-16.54-14.63h-5.74Z"/>
        <path class="cls-1" d="m394.68,95.17c0-8.22,0-16.45-.19-24.67l-8.8-4.97h27.73c13.29,0,20.85,6.5,20.85,15.59,0,6.79-4.21,12.91-14.82,15.11,12.72,1.82,18.07,8.03,18.07,15.78,0,8.7-7.17,17.5-25.53,17.5h-26.3l8.8-4.97c.19-8.03.19-16.35.19-24.67v-4.69Zm9.28-25.25c-.19,8.22-.19,16.73-.19,24.29h4.97c11.57,0,16.54-3.73,16.54-12.43s-4.97-11.86-14.73-11.86h-6.6Zm-.19,28.69c0,10.04,0,18.27.19,26.39h5.83c12.24,0,18.17-4.59,18.17-13.01,0-8.89-5.74-13.39-18.93-13.39h-5.26Z"/>
        <path class="cls-1" d="m445.93,107.03c0-15.87,10.81-24.19,21.9-24.19s21.99,8.32,21.99,24.19-10.9,23.72-21.99,23.72-21.9-7.94-21.9-23.72Zm34.81,0c0-12.91-4.69-19.79-12.91-19.79s-12.81,6.88-12.81,19.79,4.49,19.41,12.81,19.41,12.91-6.6,12.91-19.41Z"/>
        <path class="cls-1" d="m498.43,107.03c0-15.87,10.81-24.19,21.9-24.19s21.99,8.32,21.99,24.19-10.9,23.72-21.99,23.72-21.9-7.94-21.9-23.72Zm34.81,0c0-12.91-4.69-19.79-12.91-19.79s-12.81,6.88-12.81,19.79,4.49,19.41,12.81,19.41,12.91-6.6,12.91-19.41Z"/>
        <polygon class="cls-1" points="587.42 124.91 571.74 99.96 582.26 89.15 591.24 84.08 569.06 84.08 576.04 89.53 563.51 101.89 566 105.79 580.73 129.5 593.73 129.5 587.42 124.91"/>
        <path class="cls-1" d="m562.69,106.55v-33.37l.38-13.58-1.34-.76-14.92,4.3,7.84,4.3v41.98c0,4.97-.1,30.23-.19,35.3l-7.65,4.78h15.97l.09-4.78c-.1-4.11-.16-36.53-.16-38.2l-.03.03Z"/>
        <path class="cls-1" d="m601.89,127.11l-.38-10.52,7.08,8.32c2.29,1.05,4.78,1.53,7.75,1.53,7.27,0,10.71-2.96,10.71-7.27s-2.87-6.22-8.89-8.32l-4.4-1.62c-6.98-2.58-11.57-6.41-11.57-12.91,0-6.98,5.93-13.48,16.64-13.48,5.16,0,9.28,1.43,13.39,3.92l-.38,9.75-6.5-7.65c-2.1-1.05-4.3-1.62-6.6-1.62-5.83,0-8.89,2.58-8.89,6.5,0,4.21,2.29,5.83,8.8,8.22l2.96,1.05c9.56,3.54,13.2,8.03,13.2,14.06,0,7.27-6.31,13.67-18.65,13.67-5.35,0-9.56-1.24-14.25-3.63Z"/>
      </g>
    </g>
  </g>
</svg>