<?xml version="1.0" encoding="utf-8"?>
<!-- Generator: Adobe Illustrator 27.2.0, SVG Export Plug-In . SVG Version: 6.00 Build 0)  -->
<svg version="1.1" id="Layer_2_00000044880855308039959150000006927086822856316070_"
	 xmlns="http://www.w3.org/2000/svg" xmlns:xlink="http://www.w3.org/1999/xlink" x="0px" y="0px" viewBox="0 0 1191.5 808.9"
	 style="enable-background:new 0 0 1191.5 808.9;" xml:space="preserve">
<style type="text/css">
	.st0{fill:#0000FF;}
	.st1{enable-background:new    ;}
	.st2{fill:none;stroke:#0000FF;stroke-width:7;stroke-miterlimit:10;}
	.st3{fill:none;stroke:#0000FF;stroke-miterlimit:10;}
</style>
<g id="Layer_1-2">
	<g>
		<path d="M902.3,497.6h52c14,0,25.3-13.5,25.3-30.1v-62.8h-77.3V497.6z"/>
		<rect x="791.3" y="404.7" width="77.3" height="92.9"/>
		<rect x="671.3" y="404.7" width="77.3" height="92.9"/>
		<rect x="562.3" y="404.7" width="77.3" height="92.9"/>
		<path d="M224.9,467.4c0,16.6,11.3,30.1,25.2,30.1h52v-92.9h-77.3V467.4L224.9,467.4z"/>
		<rect x="345.5" y="405" width="77.3" height="92.9"/>
		<rect x="452.4" y="404.7" width="77.3" height="92.9"/>
		<polygon points="727.5,279 529.5,179 529.5,377.5 529.5,377.5 529.5,378 		"/>
		<path d="M226.2,88.4v62.8h77.3V58.3h-52C237.5,58.3,226.2,71.8,226.2,88.4L226.2,88.4z"/>
		<rect x="346.8" y="58" width="77.3" height="92.9"/>
		<rect x="453.6" y="58.2" width="77.3" height="92.9"/>
		<rect x="563.6" y="58.2" width="77.3" height="92.9"/>
		<rect x="672.6" y="58.2" width="77.3" height="92.9"/>
		<rect x="792.6" y="58.2" width="77.3" height="92.9"/>
		<path d="M955.6,58.2h-52v92.9h77.3V88.3C980.9,71.7,969.6,58.2,955.6,58.2z"/>
	</g>
	<path class="st0" d="M928.4,0h-657c-60.8,0-110,58.7-110,131v312c0,72.3,49.2,131,110,131h657c60.8,0,110-58.7,110-131V131
		C1038.4,58.6,989.1,0,928.4,0z M563.6,58.2h77.3v92.9h-77.3V58.2z M529.4,377.5V179l198,100l-198,99V377.5L529.4,377.5z
		 M453.6,58.2h77.3v92.9h-77.3L453.6,58.2L453.6,58.2z M302.1,497.5h-52c-13.9,0-25.2-13.5-25.2-30.1v-62.8h77.3V497.5z
		 M303.4,151.2h-77.3V88.4c0-16.6,11.3-30.1,25.2-30.1h52V151.2z M422.8,497.9h-77.3V405h77.3V497.9z M424,150.9h-77.3V58H424V150.9
		L424,150.9z M529.6,497.6h-77.3v-92.9h77.3V497.6z M639.6,497.6h-77.3v-92.9h77.3V497.6z M748.6,497.6h-77.3v-92.9h77.3V497.6z
		 M749.8,151.1h-77.3V58.2h77.3V151.1L749.8,151.1z M868.6,497.6h-77.3v-92.9h77.3V497.6z M869.8,151.1h-77.3V58.2h77.3V151.1
		L869.8,151.1z M979.6,467.5c0,16.6-11.3,30.1-25.3,30.1h-52v-92.9h77.3V467.5z M980.8,151.1h-77.3V58.2h52
		c14,0,25.2,13.5,25.2,30.1V151.1L980.8,151.1z"/>
</g>
<g id="Layer_3">
	<g class="st1">
		<path class="st0" d="M30.4,614.5v115h41.7l20.2,20.2H10.2V594.3L30.4,614.5z"/>
		<path class="st0" d="M105.6,749.7V594.3l71,86.4v-86.4h20.2v155.4l-71-88.8v88.8H105.6z"/>
		<path class="st0" d="M230.4,749.7h-20.2V594.3h46.2c56.6,0,56.6,84.4,0,84.4h-26V749.7z M230.4,614.5v44h14.2c42,0,42-44,0-44
			H230.4z"/>
	</g>
	<g class="st1">
		<path class="st2" d="M30.4,614.5v115h41.7l20.2,20.2H10.2V594.3L30.4,614.5z"/>
		<path class="st2" d="M105.6,749.7V594.3l71,86.4v-86.4h20.2v155.4l-71-88.8v88.8H105.6z"/>
		<path class="st2" d="M230.4,749.7h-20.2V594.3h46.2c56.6,0,56.6,84.4,0,84.4h-26V749.7z M230.4,614.5v44h14.2c42,0,42-44,0-44
			H230.4z"/>
	</g>
	<g class="st1">
		<path class="st0" d="M364.7,749.7V594.3h62.4c1.9,0,4,0.4,6.2,1.1c2.2,0.7,4.3,1.8,6.2,3.1c1.9,1.3,3.5,2.9,4.8,4.6
			c1.3,1.7,1.9,3.5,1.9,5.4v48c0,1.9-0.7,4-2,6.3c-1.3,2.3-3,4.6-5,6.8c-2,2.2-4.1,4.2-6.3,6c-2.2,1.8-4.1,3.1-5.8,4l-34,17.8v52.4
			H364.7z M393.1,668.9l24.6-12.4v-33.7h-24.6V668.9z"/>
		<path class="st0" d="M448.8,655.1c0-4.3,1.7-8.1,5-11.4s8.3-5,15-5h33.1v28.4h-24.6v82.6h-28.4V655.1z"/>
		<path class="st0" d="M504.5,660.5c0-2.2,0.4-4.6,1.3-7.2c0.9-2.6,2.1-5,3.6-7.1c1.5-2.1,3.3-3.9,5.3-5.3c2.1-1.4,4.2-2.1,6.4-2.1
			h48.2c2.2,0,4.4,0.7,6.4,2.1c2.1,1.4,3.8,3.2,5.3,5.3c1.5,2.1,2.7,4.5,3.6,7.1c0.9,2.6,1.3,5,1.3,7.2v67.5c0,2.2-0.4,4.6-1.3,7.2
			c-0.9,2.6-2.1,5-3.6,7.1c-1.5,2.1-3.3,3.9-5.3,5.3c-2.1,1.4-4.2,2.1-6.4,2.1h-48.2c-2.2,0-4.4-0.7-6.4-2.1
			c-2.1-1.4-3.9-3.2-5.3-5.3c-1.5-2.1-2.7-4.5-3.6-7.1c-0.9-2.6-1.3-5-1.3-7.2V660.5z M557.6,721.3v-54.2H533v54.2H557.6z"/>
		<path class="st0" d="M670.2,727.9c0,2.2-0.4,4.6-1.3,7.1c-0.9,2.5-2.1,4.9-3.6,7.1c-1.5,2.2-3.2,4-5.2,5.4c-2,1.4-4.1,2.1-6.3,2.1
			H602c-1.3,0-2.8-0.3-4.3-0.8c-1.6-0.5-3-1.3-4.3-2.2c-1.3-1-2.4-2.1-3.3-3.3c-0.9-1.3-1.3-2.6-1.3-3.9v-83.7l53.1-21.5v-40h28.4
			V727.9z M617.1,669.3v51.9h24.6v-61L617.1,669.3z"/>
		<path class="st0" d="M672.8,638.7h28.4v82.6h24.6v-82.6h28.4v94.6c0,4.3-1.7,8.1-5,11.4c-3.3,3.3-8.3,5-15,5h-41.5
			c-6.7,0-11.7-1.7-15-5s-5-7.1-5-11.4V638.7z"/>
		<path class="st0" d="M821.8,638.7c2.2,0,4.4,0.7,6.4,2.1c2.1,1.4,3.8,3.2,5.3,5.3c1.5,2.1,2.7,4.5,3.6,7.1c0.9,2.6,1.3,5,1.3,7.2
			v19.3L810,693.1v-26h-24.6v54.2H810v-12.7l28.4-13.3v32.6c0,2.2-0.4,4.6-1.3,7.2c-0.9,2.6-2.1,5-3.6,7.1c-1.5,2.1-3.3,3.9-5.3,5.3
			c-2.1,1.4-4.2,2.1-6.4,2.1h-48.2c-2.2,0-4.4-0.7-6.4-2.1c-2.1-1.4-3.9-3.2-5.3-5.3c-1.5-2.1-2.7-4.5-3.6-7.1
			c-0.9-2.6-1.3-5-1.3-7.2v-67.5c0-2.2,0.4-4.6,1.3-7.2c0.9-2.6,2.1-5,3.6-7.1c1.5-2.1,3.3-3.9,5.3-5.3c2.1-1.4,4.2-2.1,6.4-2.1
			H821.8z"/>
		<path class="st0" d="M841.1,594.3h28.4V628l20.4-13.3v28.4l-20.4,13.3v64.8h14.4l22.2,28.4h-43.3c-3.1,0-6-0.6-8.7-1.9
			c-2.7-1.3-5-3-6.9-5.1c-1.9-2.1-3.4-4.6-4.6-7.4c-1.1-2.8-1.7-5.8-1.7-8.9V594.3z"/>
		<path class="st0" d="M908.8,599.4h28.4v28.4h-28.4V599.4z M937.2,638.7v111h-28.4v-111H937.2z"/>
		<path class="st0" d="M939.9,660.5c0-2.2,0.4-4.6,1.3-7.2c0.9-2.6,2.1-5,3.6-7.1c1.5-2.1,3.3-3.9,5.3-5.3c2.1-1.4,4.2-2.1,6.4-2.1
			h48.2c2.2,0,4.4,0.7,6.4,2.1c2.1,1.4,3.8,3.2,5.3,5.3c1.5,2.1,2.7,4.5,3.6,7.1c0.9,2.6,1.3,5,1.3,7.2v67.5c0,2.2-0.4,4.6-1.3,7.2
			c-0.9,2.6-2.1,5-3.6,7.1c-1.5,2.1-3.3,3.9-5.3,5.3c-2.1,1.4-4.2,2.1-6.4,2.1h-48.2c-2.2,0-4.4-0.7-6.4-2.1
			c-2.1-1.4-3.9-3.2-5.3-5.3c-1.5-2.1-2.7-4.5-3.6-7.1c-0.9-2.6-1.3-5-1.3-7.2V660.5z M992.9,721.3v-54.2h-24.6v54.2H992.9z"/>
		<path class="st0" d="M1024,749.7v-94.6c0-4.3,1.7-8.1,5-11.4s8.3-5,15-5h41.5c6.7,0,11.7,1.7,15,5c3.3,3.3,5,7.1,5,11.4v94.6
			h-28.4v-82.6h-24.6v82.6H1024z"/>
		<path class="st0" d="M1136.6,709.5v9.5c0,0.6,0.4,1.1,1.1,1.6c0.7,0.4,1.5,0.7,2.2,0.7h18.2c0.7,0,1.4-0.2,2.1-0.7s1-1,1-1.6v-2.2
			c0-0.9-0.6-1.7-1.8-2.4l-47.7-26c-0.7-0.4-1.5-0.9-2.3-1.4c-0.8-0.5-1.2-1.1-1.2-1.9v-33.3c0-1.3,0.4-2.8,1.1-4.3
			c0.7-1.6,1.7-3,3-4.3c1.3-1.3,2.7-2.4,4.3-3.2c1.6-0.8,3.4-1.2,5.3-1.2h53.9c1.9,0,3.7,0.4,5.3,1.2c1.6,0.8,3.1,1.9,4.3,3.2
			c1.3,1.3,2.3,2.8,3,4.3c0.7,1.6,1.1,3,1.1,4.3v30.9h-28.4v-13.5c0-0.4-0.3-0.9-0.9-1.3c-0.6-0.4-1.3-0.7-2-0.7h-18.2
			c-0.7,0-1.5,0.2-2.3,0.7c-0.8,0.4-1.2,1-1.2,1.6v2.7c0,0.7,0.1,1.5,0.2,2.3c0.1,0.8,0.7,1.4,1.6,1.9l47.7,25.5
			c0.7,0.4,1.5,1,2.3,1.7c0.8,0.7,1.2,1.4,1.2,2.1v31.1c0,1.3-0.4,2.8-1.1,4.3c-0.7,1.6-1.7,3-3,4.3c-1.3,1.3-2.7,2.4-4.3,3.2
			c-1.6,0.8-3.4,1.2-5.3,1.2h-53.9c-1.9,0-3.7-0.4-5.3-1.2c-1.6-0.8-3.1-1.9-4.3-3.2c-1.3-1.3-2.3-2.8-3-4.3c-0.7-1.6-1.1-3-1.1-4.3
			v-27.1H1136.6z"/>
	</g>
	<g class="st1">
		<path class="st3" d="M364.7,749.7V594.3h62.4c1.9,0,4,0.4,6.2,1.1c2.2,0.7,4.3,1.8,6.2,3.1c1.9,1.3,3.5,2.9,4.8,4.6
			c1.3,1.7,1.9,3.5,1.9,5.4v48c0,1.9-0.7,4-2,6.3c-1.3,2.3-3,4.6-5,6.8c-2,2.2-4.1,4.2-6.3,6c-2.2,1.8-4.1,3.1-5.8,4l-34,17.8v52.4
			H364.7z M393.1,668.9l24.6-12.4v-33.7h-24.6V668.9z"/>
		<path class="st3" d="M448.8,655.1c0-4.3,1.7-8.1,5-11.4s8.3-5,15-5h33.1v28.4h-24.6v82.6h-28.4V655.1z"/>
		<path class="st3" d="M504.5,660.5c0-2.2,0.4-4.6,1.3-7.2c0.9-2.6,2.1-5,3.6-7.1c1.5-2.1,3.3-3.9,5.3-5.3c2.1-1.4,4.2-2.1,6.4-2.1
			h48.2c2.2,0,4.4,0.7,6.4,2.1c2.1,1.4,3.8,3.2,5.3,5.3c1.5,2.1,2.7,4.5,3.6,7.1c0.9,2.6,1.3,5,1.3,7.2v67.5c0,2.2-0.4,4.6-1.3,7.2
			c-0.9,2.6-2.1,5-3.6,7.1c-1.5,2.1-3.3,3.9-5.3,5.3c-2.1,1.4-4.2,2.1-6.4,2.1h-48.2c-2.2,0-4.4-0.7-6.4-2.1
			c-2.1-1.4-3.9-3.2-5.3-5.3c-1.5-2.1-2.7-4.5-3.6-7.1c-0.9-2.6-1.3-5-1.3-7.2V660.5z M557.6,721.3v-54.2H533v54.2H557.6z"/>
		<path class="st3" d="M670.2,727.9c0,2.2-0.4,4.6-1.3,7.1c-0.9,2.5-2.1,4.9-3.6,7.1c-1.5,2.2-3.2,4-5.2,5.4c-2,1.4-4.1,2.1-6.3,2.1
			H602c-1.3,0-2.8-0.3-4.3-0.8c-1.6-0.5-3-1.3-4.3-2.2c-1.3-1-2.4-2.1-3.3-3.3c-0.9-1.3-1.3-2.6-1.3-3.9v-83.7l53.1-21.5v-40h28.4
			V727.9z M617.1,669.3v51.9h24.6v-61L617.1,669.3z"/>
		<path class="st3" d="M672.8,638.7h28.4v82.6h24.6v-82.6h28.4v94.6c0,4.3-1.7,8.1-5,11.4c-3.3,3.3-8.3,5-15,5h-41.5
			c-6.7,0-11.7-1.7-15-5s-5-7.1-5-11.4V638.7z"/>
		<path class="st3" d="M821.8,638.7c2.2,0,4.4,0.7,6.4,2.1c2.1,1.4,3.8,3.2,5.3,5.3c1.5,2.1,2.7,4.5,3.6,7.1c0.9,2.6,1.3,5,1.3,7.2
			v19.3L810,693.1v-26h-24.6v54.2H810v-12.7l28.4-13.3v32.6c0,2.2-0.4,4.6-1.3,7.2c-0.9,2.6-2.1,5-3.6,7.1c-1.5,2.1-3.3,3.9-5.3,5.3
			c-2.1,1.4-4.2,2.1-6.4,2.1h-48.2c-2.2,0-4.4-0.7-6.4-2.1c-2.1-1.4-3.9-3.2-5.3-5.3c-1.5-2.1-2.7-4.5-3.6-7.1
			c-0.9-2.6-1.3-5-1.3-7.2v-67.5c0-2.2,0.4-4.6,1.3-7.2c0.9-2.6,2.1-5,3.6-7.1c1.5-2.1,3.3-3.9,5.3-5.3c2.1-1.4,4.2-2.1,6.4-2.1
			H821.8z"/>
		<path class="st3" d="M841.1,594.3h28.4V628l20.4-13.3v28.4l-20.4,13.3v64.8h14.4l22.2,28.4h-43.3c-3.1,0-6-0.6-8.7-1.9
			c-2.7-1.3-5-3-6.9-5.1c-1.9-2.1-3.4-4.6-4.6-7.4c-1.1-2.8-1.7-5.8-1.7-8.9V594.3z"/>
		<path class="st3" d="M908.8,599.4h28.4v28.4h-28.4V599.4z M937.2,638.7v111h-28.4v-111H937.2z"/>
		<path class="st3" d="M939.9,660.5c0-2.2,0.4-4.6,1.3-7.2c0.9-2.6,2.1-5,3.6-7.1c1.5-2.1,3.3-3.9,5.3-5.3c2.1-1.4,4.2-2.1,6.4-2.1
			h48.2c2.2,0,4.4,0.7,6.4,2.1c2.1,1.4,3.8,3.2,5.3,5.3c1.5,2.1,2.7,4.5,3.6,7.1c0.9,2.6,1.3,5,1.3,7.2v67.5c0,2.2-0.4,4.6-1.3,7.2
			c-0.9,2.6-2.1,5-3.6,7.1c-1.5,2.1-3.3,3.9-5.3,5.3c-2.1,1.4-4.2,2.1-6.4,2.1h-48.2c-2.2,0-4.4-0.7-6.4-2.1
			c-2.1-1.4-3.9-3.2-5.3-5.3c-1.5-2.1-2.7-4.5-3.6-7.1c-0.9-2.6-1.3-5-1.3-7.2V660.5z M992.9,721.3v-54.2h-24.6v54.2H992.9z"/>
		<path class="st3" d="M1024,749.7v-94.6c0-4.3,1.7-8.1,5-11.4s8.3-5,15-5h41.5c6.7,0,11.7,1.7,15,5c3.3,3.3,5,7.1,5,11.4v94.6
			h-28.4v-82.6h-24.6v82.6H1024z"/>
		<path class="st3" d="M1136.6,709.5v9.5c0,0.6,0.4,1.1,1.1,1.6c0.7,0.4,1.5,0.7,2.2,0.7h18.2c0.7,0,1.4-0.2,2.1-0.7s1-1,1-1.6v-2.2
			c0-0.9-0.6-1.7-1.8-2.4l-47.7-26c-0.7-0.4-1.5-0.9-2.3-1.4c-0.8-0.5-1.2-1.1-1.2-1.9v-33.3c0-1.3,0.4-2.8,1.1-4.3
			c0.7-1.6,1.7-3,3-4.3c1.3-1.3,2.7-2.4,4.3-3.2c1.6-0.8,3.4-1.2,5.3-1.2h53.9c1.9,0,3.7,0.4,5.3,1.2c1.6,0.8,3.1,1.9,4.3,3.2
			c1.3,1.3,2.3,2.8,3,4.3c0.7,1.6,1.1,3,1.1,4.3v30.9h-28.4v-13.5c0-0.4-0.3-0.9-0.9-1.3c-0.6-0.4-1.3-0.7-2-0.7h-18.2
			c-0.7,0-1.5,0.2-2.3,0.7c-0.8,0.4-1.2,1-1.2,1.6v2.7c0,0.7,0.1,1.5,0.2,2.3c0.1,0.8,0.7,1.4,1.6,1.9l47.7,25.5
			c0.7,0.4,1.5,1,2.3,1.7c0.8,0.7,1.2,1.4,1.2,2.1v31.1c0,1.3-0.4,2.8-1.1,4.3c-0.7,1.6-1.7,3-3,4.3c-1.3,1.3-2.7,2.4-4.3,3.2
			c-1.6,0.8-3.4,1.2-5.3,1.2h-53.9c-1.9,0-3.7-0.4-5.3-1.2c-1.6-0.8-3.1-1.9-4.3-3.2c-1.3-1.3-2.3-2.8-3-4.3c-0.7-1.6-1.1-3-1.1-4.3
			v-27.1H1136.6z"/>
	</g>
</g>
</svg>
