<?xml version="1.0" encoding="UTF-8"?>
<svg id="Layer_2" data-name="Layer 2" xmlns="http://www.w3.org/2000/svg" viewBox="0 0 414 414">
  <defs>
    <style>
      .cls-1 {
        fill: blue;
      }
    </style>
  </defs>
  <g id="Layer_1-2" data-name="Layer 1">
    <path class="cls-1" d="m207,0C92.68,0,0,92.68,0,207s92.68,207,207,207,207-92.68,207-207S321.32,0,207,0Zm-20.41,307.22H41.78V106.48h51.7v155.7h93.12v45.05Zm143,0l-3.02-11.79c-9.67,11.19-29.63,18.74-53.51,18.74-55.02,0-92.21-42.93-92.21-107.63,0-59.25,31.14-106.72,101.28-106.72,52.91,0,86.77,28.42,89.79,68.63h-51.09c-2.12-15.42-14.21-26-38.7-26-27.81,0-48.37,20.86-48.37,66.21,0,40.21,20.26,61.98,48.67,61.98,19.05,0,41.42-13.3,41.42-32.65h-37.49v-41.12h85.86v110.35h-42.63Z"/>
  </g>
</svg>